<svg width="24" height="24" viewBox="0 0 24 24" fill="none" xmlns="http://www.w3.org/2000/svg">
<path d="M21.2381 13.1545C21.2381 12.806 21.1571 12.4732 21.0109 12.1686C20.9958 12.0912 20.9786 12.0139 20.957 11.9355L19.3728 8.12151L19.362 8.08719C18.8077 6.48389 18.019 5 16.0191 5H8.37269C6.32348 5 5.59936 6.52066 5.03291 8.07829L3.37577 11.9016C3.1362 12.2745 3 12.701 3 13.1545V14.3413C3 14.5248 3.02233 14.7043 3.06478 14.8772C3.02351 14.9816 3 15.0942 3 15.2129V18.7427C3 19.2603 3.43196 19.68 3.96479 19.68H5.9669C6.49945 19.68 6.93141 19.2603 6.93141 18.7427V16.9775H17.4211V18.7427C17.4211 19.2603 17.8531 19.68 18.386 19.68H20.2735C20.8065 19.68 21.2384 19.2603 21.2384 18.7427V15.2125C21.2384 15.0942 21.2146 14.9812 21.1737 14.8771C21.216 14.7039 21.2384 14.5246 21.2384 14.3412V13.1546H21.2381V13.1545ZM6.20867 8.46121C6.83949 6.73229 7.34678 6.2045 8.37269 6.2045H16.0187C17.037 6.2045 17.6041 6.79316 18.1803 8.45377L19.3364 10.7296C18.9589 10.5938 18.5435 10.5185 18.1071 10.5185H6.13106C5.73809 10.5185 5.36256 10.5799 5.01608 10.691L6.20867 8.46121ZM7.20178 14.7921H5.08934C4.709 14.7921 4.40054 14.4921 4.40054 14.1227C4.40054 13.7531 4.709 13.4534 5.08934 13.4534H7.20178C7.58228 13.4534 7.89074 13.7531 7.89074 14.1227C7.89074 14.4921 7.58207 14.7921 7.20178 14.7921ZM14.6641 14.658H9.75046C9.50954 14.658 9.31434 14.4683 9.31434 14.2343C9.31434 14 9.50954 13.8103 9.75046 13.8103H14.6641C14.9053 13.8103 15.1004 14 15.1004 14.2343C15.1004 14.4683 14.9053 14.658 14.6641 14.658ZM19.0955 14.7921H16.9832C16.6025 14.7921 16.2942 14.4921 16.2942 14.1227C16.2942 13.7531 16.6028 13.4534 16.9832 13.4534H19.0955C19.4762 13.4534 19.7848 13.7531 19.7848 14.1227C19.7848 14.4921 19.4762 14.7921 19.0955 14.7921Z" fill="#407EF9"/>
</svg>
