<svg width="20" height="20" viewBox="0 0 20 20" fill="none" xmlns="http://www.w3.org/2000/svg">
<path d="M17.3098 7.63L16.1698 4.20917C16.0045 3.71124 15.6864 3.27808 15.2608 2.97126C14.8352 2.66443 14.3237 2.49953 13.799 2.5H6.20067C5.67599 2.49953 5.16452 2.66443 4.73891 2.97126C4.3133 3.27808 3.99521 3.71124 3.82984 4.20917L2.68984 7.63C2.38701 7.75707 2.1284 7.97063 1.94637 8.24397C1.76435 8.51731 1.66699 8.83827 1.6665 9.16667V13.3333C1.6665 13.9608 2.019 14.5017 2.53234 14.7858C2.5215 14.8408 2.49984 14.8908 2.49984 14.9483V16.6667C2.49984 16.8877 2.58763 17.0996 2.74391 17.2559C2.9002 17.4122 3.11216 17.5 3.33317 17.5H4.1665C4.38752 17.5 4.59948 17.4122 4.75576 17.2559C4.91204 17.0996 4.99984 16.8877 4.99984 16.6667V15H14.9998V16.6667C14.9998 16.8877 15.0876 17.0996 15.2439 17.2559C15.4002 17.4122 15.6122 17.5 15.8332 17.5H16.6665C16.8875 17.5 17.0995 17.4122 17.2558 17.2559C17.412 17.0996 17.4998 16.8877 17.4998 16.6667V14.9483C17.4998 14.8908 17.4782 14.84 17.4673 14.7858C17.7285 14.6434 17.9466 14.4335 18.099 14.178C18.2513 13.9225 18.3321 13.6308 18.3332 13.3333V9.16667C18.3332 8.47583 17.9098 7.8825 17.3098 7.63ZM3.33317 13.3333V9.16667H16.6665L16.6682 13.3333H3.33317ZM6.20067 4.16667H13.7982C14.1573 4.16667 14.4757 4.395 14.589 4.73667L15.5107 7.5H4.489L5.40984 4.73667C5.46513 4.57066 5.57127 4.42627 5.71321 4.32397C5.85516 4.22166 6.0257 4.16663 6.20067 4.16667V4.16667Z" fill="#72767C"/>
<path d="M5.4165 12.5C6.10686 12.5 6.6665 11.9404 6.6665 11.25C6.6665 10.5596 6.10686 10 5.4165 10C4.72615 10 4.1665 10.5596 4.1665 11.25C4.1665 11.9404 4.72615 12.5 5.4165 12.5Z" fill="#72767C"/>
<path d="M14.583 12.5C15.2734 12.5 15.833 11.9404 15.833 11.25C15.833 10.5596 15.2734 10 14.583 10C13.8927 10 13.333 10.5596 13.333 11.25C13.333 11.9404 13.8927 12.5 14.583 12.5Z" fill="#72767C"/>
</svg>
