<svg width="26" height="26" viewBox="0 0 26 26" fill="none" xmlns="http://www.w3.org/2000/svg">
<path d="M7.3802 9.19643L7.51369 9.3297L9.36474 7.47841L9.23148 7.34492C9.74763 6.10132 9.50139 4.61533 8.48981 3.60309C7.47804 2.59155 5.99199 2.34529 4.74775 2.86189L6.98961 5.10375L5.13856 6.9548L2.89693 4.71271C2.38032 5.95723 2.62701 7.44346 3.63883 8.45454C4.6506 9.4659 6.13665 9.71257 7.38019 9.19644L7.3802 9.19643Z" fill="#A162F7"/>
<path d="M19.6705 7.5268L21.3538 6.97095L22.9271 4.26208L21.7917 3.12695L19.0831 4.70069L18.5277 6.38399L17.124 7.78726L18.2668 8.93007L19.6705 7.5268Z" fill="#A162F7"/>
<path d="M23.1918 21.2869C23.7084 20.0426 23.4626 18.5566 22.4513 17.5448C21.439 16.5333 19.9528 16.2866 18.7092 16.8032L18.5065 16.6009L16.6552 18.452L16.8579 18.6547C16.3413 19.898 16.5878 21.3847 17.5998 22.396C18.6114 23.4076 20.0976 23.6543 21.3412 23.1377L19.0995 20.8958L20.9508 19.0452L23.1918 21.2869Z" fill="#A162F7"/>
<path d="M17.3944 15.4189C17.5859 15.0789 17.7383 14.7138 17.8456 14.3303H19.1519V11.6149H17.8456C17.7383 11.2311 17.5854 10.8665 17.3944 10.5262L18.318 9.6026L16.3982 7.68204L15.4745 8.60589C15.1341 8.4149 14.7692 8.26224 14.3854 8.15423V6.84863H11.67V8.15423C11.2862 8.26224 10.9216 8.41512 10.5809 8.60589L9.65728 7.68204L7.73696 9.6026L8.66058 10.5262C8.46959 10.8667 8.31693 11.2316 8.20892 11.6149H6.90332V14.3303H8.20892C8.31693 14.7143 8.46936 15.0789 8.66058 15.4189L7.73696 16.3428L9.65728 18.2631L10.5809 17.3393C10.9216 17.5303 11.2863 17.6829 11.67 17.7909V19.0965H14.3854V17.7909C14.7694 17.6829 15.1341 17.53 15.4745 17.3393L16.3982 18.2631L18.318 16.3428L17.3944 15.4189ZM13.0273 15.8431C11.4421 15.8431 10.1567 14.5575 10.1567 12.9728C10.1567 11.3875 11.4423 10.1022 13.0273 10.1022C14.613 10.1022 15.8979 11.3875 15.8979 12.9728C15.8981 14.5575 14.613 15.8431 13.0273 15.8431Z" fill="#A162F7"/>
<path d="M4.98648 23.3987L2.59961 21.0114L7.28942 16.3223L9.67629 18.7095L4.98648 23.3987Z" fill="#A162F7"/>
</svg>
