<svg width="20" height="20" viewBox="0 0 20 20" fill="none" xmlns="http://www.w3.org/2000/svg">
<path d="M18.0898 12.9819L14.3232 9.2236C14.402 8.83975 14.4411 8.4488 14.4398 8.05693C14.4395 6.98248 14.1684 5.92543 13.6515 4.9835C13.1345 4.04158 12.3885 3.24517 11.4823 2.66789C10.5761 2.09061 9.53894 1.75109 8.46679 1.68072C7.39465 1.61035 6.32206 1.81139 5.34817 2.26527C5.22478 2.32163 5.11702 2.40727 5.03425 2.51473C4.95147 2.6222 4.89618 2.74825 4.87317 2.88193C4.85026 3.01392 4.8595 3.14949 4.90012 3.27715C4.94074 3.40481 5.01153 3.52079 5.1065 3.61527L8.7315 7.23193L7.2315 8.73193L3.61484 5.10693C3.51956 5.01344 3.40322 4.9442 3.2756 4.90504C3.14798 4.86589 3.01282 4.85796 2.8815 4.88193C2.74866 4.9041 2.62316 4.95813 2.51576 5.0394C2.40836 5.12068 2.32226 5.22677 2.26484 5.3486C1.80944 6.32569 1.60857 7.40208 1.68091 8.47766C1.75326 9.55323 2.09646 10.593 2.6786 11.5003C3.26074 12.4076 4.0629 13.153 5.01046 13.667C5.95802 14.181 7.02019 14.447 8.09817 14.4403C8.49003 14.4415 8.88098 14.4024 9.26484 14.3236L13.0232 18.0903C13.1006 18.1684 13.1928 18.2304 13.2944 18.2727C13.3959 18.315 13.5048 18.3368 13.6148 18.3368C13.7248 18.3368 13.8338 18.315 13.9353 18.2727C14.0369 18.2304 14.129 18.1684 14.2065 18.0903C14.2846 18.0128 14.3466 17.9206 14.3889 17.8191C14.4312 17.7175 14.453 17.6086 14.453 17.4986C14.453 17.3886 14.4312 17.2797 14.3889 17.1781C14.3466 17.0766 14.2846 16.9844 14.2065 16.9069L10.1232 12.8236C10.0211 12.7222 9.89459 12.649 9.75586 12.611C9.61713 12.5731 9.47094 12.5717 9.3315 12.6069C8.92915 12.7147 8.5147 12.7707 8.09817 12.7736C7.47488 12.7791 6.85666 12.6612 6.27912 12.4267C5.70159 12.1923 5.17615 11.8459 4.73308 11.4074C4.29001 10.969 3.93807 10.4473 3.69752 9.87223C3.45697 9.29719 3.33258 8.68025 3.3315 8.05693C3.33042 7.77778 3.35272 7.49903 3.39817 7.2236L6.66484 10.4986C6.74231 10.5767 6.83447 10.6387 6.93602 10.681C7.03757 10.7233 7.14649 10.7451 7.2565 10.7451C7.36651 10.7451 7.47544 10.7233 7.57699 10.681C7.67853 10.6387 7.7707 10.5767 7.84817 10.4986L10.4982 7.8236C10.6484 7.66821 10.7323 7.46055 10.7323 7.24443C10.7323 7.02832 10.6484 6.82066 10.4982 6.66527L7.2565 3.3986C7.53199 3.35361 7.8107 3.33131 8.08984 3.33193C9.34154 3.33414 10.5412 3.83293 11.4255 4.7188C12.3098 5.60467 12.8065 6.80523 12.8065 8.05693C12.8036 8.47346 12.7476 8.88791 12.6398 9.29027C12.6046 9.4297 12.606 9.5759 12.6439 9.71463C12.6819 9.85335 12.7551 9.97989 12.8565 10.0819L16.9398 14.1653C17.0968 14.3222 17.3096 14.4103 17.5315 14.4103C17.7534 14.4103 17.9663 14.3222 18.1232 14.1653C18.2801 14.0083 18.3682 13.7955 18.3682 13.5736C18.3682 13.3517 18.2801 13.1389 18.1232 12.9819H18.0898Z" fill="#72767C"/>
</svg>
