<svg width="109" height="31" viewBox="0 0 109 31" fill="none" xmlns="http://www.w3.org/2000/svg">
<rect y="2.0752" width="26.914" height="26.85" rx="6" fill="#A162F7"/>
<path d="M9.1273 21.7072L10.8492 19.9853C6.48698 17.345 7.21403 13.3367 8.12284 11.6626L13.5039 16.9002L18.885 11.6626C20.9513 16.1396 17.8805 19.0287 16.0868 19.9136L17.9523 21.7072C24.6248 16.6849 21.3961 9.94063 18.885 8.0752L13.5039 13.4563L7.97934 8.0752C2.09602 13.815 6.25741 20.2723 9.1273 21.7072Z" fill="white"/>
<path d="M40.5461 24V7.2H44.1941L49.5461 17.856L54.8261 7.2H58.4741V24H55.4021V12.408L50.7221 21.6H48.2981L43.6181 12.408V24H40.5461ZM67.3736 24.288C66.2216 24.288 65.1816 24.024 64.2536 23.496C63.3416 22.968 62.6136 22.24 62.0696 21.312C61.5416 20.368 61.2776 19.28 61.2776 18.048C61.2776 16.816 61.5496 15.736 62.0936 14.808C62.6376 13.864 63.3656 13.128 64.2776 12.6C65.2056 12.072 66.2456 11.808 67.3976 11.808C68.5336 11.808 69.5576 12.072 70.4696 12.6C71.3976 13.128 72.1256 13.864 72.6536 14.808C73.1976 15.736 73.4696 16.816 73.4696 18.048C73.4696 19.28 73.1976 20.368 72.6536 21.312C72.1256 22.24 71.3976 22.968 70.4696 23.496C69.5416 24.024 68.5096 24.288 67.3736 24.288ZM67.3736 21.624C68.1736 21.624 68.8696 21.328 69.4616 20.736C70.0536 20.128 70.3496 19.232 70.3496 18.048C70.3496 16.864 70.0536 15.976 69.4616 15.384C68.8696 14.776 68.1816 14.472 67.3976 14.472C66.5816 14.472 65.8776 14.776 65.2856 15.384C64.7096 15.976 64.4216 16.864 64.4216 18.048C64.4216 19.232 64.7096 20.128 65.2856 20.736C65.8776 21.328 66.5736 21.624 67.3736 21.624ZM81.0515 24C79.8035 24 78.8035 23.696 78.0515 23.088C77.2995 22.48 76.9235 21.4 76.9235 19.848V14.664H74.8835V12.096H76.9235L77.2835 8.904H79.9955V12.096H83.2115V14.664H79.9955V19.872C79.9955 20.448 80.1155 20.848 80.3555 21.072C80.6115 21.28 81.0435 21.384 81.6515 21.384H83.1395V24H81.0515ZM87.5051 10.248C86.9451 10.248 86.4811 10.08 86.1131 9.744C85.7611 9.408 85.5851 8.984 85.5851 8.472C85.5851 7.96 85.7611 7.544 86.1131 7.224C86.4811 6.888 86.9451 6.72 87.5051 6.72C88.0651 6.72 88.5211 6.888 88.8731 7.224C89.2411 7.544 89.4251 7.96 89.4251 8.472C89.4251 8.984 89.2411 9.408 88.8731 9.744C88.5211 10.08 88.0651 10.248 87.5051 10.248ZM85.9691 24V12.096H89.0411V24H85.9691ZM95.4635 24L91.0955 12.096H94.3115L97.3355 21.096L100.36 12.096H103.576L99.1835 24H95.4635ZM105.872 24.168C105.312 24.168 104.848 23.992 104.48 23.64C104.128 23.288 103.952 22.864 103.952 22.368C103.952 21.856 104.128 21.424 104.48 21.072C104.848 20.72 105.312 20.544 105.872 20.544C106.432 20.544 106.888 20.72 107.24 21.072C107.608 21.424 107.792 21.856 107.792 22.368C107.792 22.864 107.608 23.288 107.24 23.64C106.888 23.992 106.432 24.168 105.872 24.168Z" fill="#1F2128"/>
</svg>
