<svg width="20" height="20" viewBox="0 0 20 20" fill="none" xmlns="http://www.w3.org/2000/svg">
<path d="M9.99984 5.83366C9.77883 5.83366 9.56687 5.92146 9.41059 6.07774C9.25431 6.23402 9.16651 6.44598 9.16651 6.66699V10.0003C9.16651 10.2213 9.25431 10.4333 9.41059 10.5896C9.56687 10.7459 9.77883 10.8337 9.99984 10.8337C10.2209 10.8337 10.4328 10.7459 10.5891 10.5896C10.7454 10.4333 10.8332 10.2213 10.8332 10.0003V6.66699C10.8332 6.44598 10.7454 6.23402 10.5891 6.07774C10.4328 5.92146 10.2209 5.83366 9.99984 5.83366ZM10.7665 13.017C10.7483 12.9639 10.723 12.9134 10.6915 12.867L10.5915 12.742C10.4743 12.6264 10.3255 12.548 10.1639 12.5169C10.0022 12.4857 9.83493 12.5032 9.68317 12.567C9.58219 12.6092 9.48918 12.6684 9.40817 12.742C9.33094 12.8199 9.26984 12.9122 9.22837 13.0137C9.18689 13.1153 9.16587 13.224 9.16651 13.3337C9.16782 13.4426 9.19047 13.5501 9.23317 13.6503C9.2706 13.7537 9.33031 13.8477 9.40808 13.9254C9.48584 14.0032 9.57976 14.0629 9.68317 14.1003C9.78292 14.1444 9.89078 14.1672 9.99984 14.1672C10.1089 14.1672 10.2168 14.1444 10.3165 14.1003C10.4199 14.0629 10.5138 14.0032 10.5916 13.9254C10.6694 13.8477 10.7291 13.7537 10.7665 13.6503C10.8092 13.5501 10.8319 13.4426 10.8332 13.3337C10.8373 13.2782 10.8373 13.2225 10.8332 13.167C10.8188 13.1139 10.7963 13.0633 10.7665 13.017V13.017ZM9.99984 1.66699C8.35166 1.66699 6.7405 2.15573 5.37009 3.07141C3.99968 3.98709 2.93158 5.28858 2.30084 6.8113C1.67011 8.33401 1.50509 10.0096 1.82663 11.6261C2.14817 13.2426 2.94185 14.7274 4.10728 15.8929C5.27272 17.0583 6.75758 17.852 8.37409 18.1735C9.9906 18.4951 11.6662 18.3301 13.1889 17.6993C14.7116 17.0686 16.0131 16.0005 16.9288 14.6301C17.8444 13.2597 18.3332 11.6485 18.3332 10.0003C18.3332 8.90598 18.1176 7.82234 17.6988 6.8113C17.28 5.80025 16.6662 4.88159 15.8924 4.10777C15.1186 3.33395 14.1999 2.72012 13.1889 2.30133C12.1778 1.88254 11.0942 1.66699 9.99984 1.66699V1.66699ZM9.99984 16.667C8.6813 16.667 7.39237 16.276 6.29604 15.5435C5.19971 14.8109 4.34523 13.7697 3.84064 12.5515C3.33606 11.3334 3.20404 9.99293 3.46127 8.69972C3.71851 7.40652 4.35345 6.21863 5.2858 5.28628C6.21815 4.35393 7.40603 3.71899 8.69924 3.46176C9.99245 3.20452 11.3329 3.33654 12.5511 3.84113C13.7692 4.34571 14.8104 5.2002 15.543 6.29652C16.2755 7.39285 16.6665 8.68178 16.6665 10.0003C16.6665 11.7684 15.9641 13.4641 14.7139 14.7144C13.4636 15.9646 11.768 16.667 9.99984 16.667V16.667Z" fill="#FF5A5A"/>
</svg>
