<svg width="26" height="26" viewBox="0 0 26 26" fill="none" xmlns="http://www.w3.org/2000/svg">
<path d="M12.8842 15.9691C12.2008 15.9691 11.5602 15.7554 11.0049 15.3711L12.8842 16.9941L14.7635 15.3711C14.1656 15.7556 13.5249 15.9691 12.8842 15.9691V15.9691Z" fill="#70CF97"/>
<path d="M21.0851 18.9149C20.9997 18.1034 20.4444 17.4628 19.6756 17.2065L16.1305 16.1387L15.4472 18.5306C15.2764 19.1286 14.5931 19.3422 14.1232 19.0004L12.8846 18.1034L11.646 19.0003C11.1761 19.342 10.4928 19.1286 10.322 18.5307L9.6385 16.1389L6.09343 17.2066C5.32463 17.4203 4.76942 18.1036 4.68392 18.9151L4.34234 22.2464C4.25699 22.8444 4.76942 23.3995 5.36738 23.3995H20.359C20.9997 23.3995 21.4695 22.8443 21.4268 22.2464L21.0851 18.9149Z" fill="#70CF97"/>
<path d="M15.1913 8.32295C14.4225 8.62192 13.6537 8.75003 12.9276 8.75003C11.5609 8.75003 10.5785 8.23745 10.1086 7.93848C9.16895 9.1771 9.16895 11.7825 9.16895 11.8252C9.72427 13.7471 11.1764 15.541 12.8849 15.541C14.5933 15.541 16.0454 13.7044 16.6008 11.7824C16.7716 10.4584 15.533 8.92083 15.1913 8.32288L15.1913 8.32295Z" fill="#70CF97"/>
<path d="M17.1555 7.76743C17.1127 6.785 16.7284 5.8881 16.0877 5.16205C15.2762 4.82032 14.3792 4.436 13.7813 4.17961C13.7813 4.17961 10.0654 3.02649 9.21121 6.0162C9.16846 6.05895 9.16846 6.05895 9.12585 6.05895C9.04049 6.05895 8.91223 6.1017 8.74153 6.14431C8.48531 6.65688 8.3572 7.16934 8.31445 7.76729C8.48532 7.93816 8.61342 8.19437 8.61342 8.45075L8.61327 10.8427C8.61327 10.9708 8.57052 11.0563 8.57052 11.1844C8.69863 11.4406 8.82674 11.697 8.95485 11.8679C8.95485 11.8679 8.39964 8.70728 9.85178 7.4259C9.85178 7.4259 11.9873 9.26249 15.3615 7.85298C15.3615 7.85298 16.9845 9.94579 16.6855 11.8678C16.6855 11.8678 16.8136 11.6542 16.8992 11.3126C16.8138 11.1845 16.771 11.0137 16.771 10.8428V8.49361C16.8565 8.19449 16.9847 7.93829 17.1555 7.7674L17.1555 7.76743Z" fill="#70CF97"/>
<path d="M10.0225 16.0111L10.7059 18.4029C10.7913 18.7018 11.133 18.7872 11.3466 18.6165L12.8415 17.5487L10.5778 15.584L10.0225 16.0111Z" fill="#70CF97"/>
<path d="M15.0631 18.4458L15.7465 16.054L15.1486 15.627L12.8848 17.5917L14.3796 18.6594C14.636 18.8303 14.9776 18.7021 15.0631 18.4458V18.4458Z" fill="#70CF97"/>
<path d="M7.58816 11.3556H7.71627C8.01524 11.3556 8.27147 11.0993 8.27147 10.8003V8.45116C8.27147 8.23754 8.14336 8.06683 7.9725 7.98133C8.01526 5.3332 10.1508 3.19768 12.7989 3.19768C15.447 3.19768 17.6252 5.33324 17.6252 7.98133C17.4544 8.06669 17.3263 8.23756 17.3263 8.45116L17.3264 10.8429C17.3264 11.1419 17.5826 11.3982 17.8816 11.3982H18.0097C18.5223 11.3982 18.9494 10.9711 18.9494 10.4585V8.92087C18.9494 8.49379 18.6504 8.15206 18.266 8.02393C18.2232 5.03422 15.7887 2.59961 12.7989 2.59961C9.80922 2.59961 7.3746 5.03415 7.33189 8.02393C6.94757 8.15204 6.64844 8.49375 6.64844 8.92087L6.64859 10.4159C6.64859 10.9283 7.07566 11.3556 7.58827 11.3556H7.58816Z" fill="#70CF97"/>
</svg>
