<svg width="30" height="30" viewBox="0 0 30 30" fill="none" xmlns="http://www.w3.org/2000/svg">
<path fill-rule="evenodd" clip-rule="evenodd" d="M14.5121 3V4.56587C13.2679 4.89735 11.8458 5.84341 11.8263 6.63323C11.8205 6.86556 12.0134 7.05287 12.2459 7.05287H18.4317C18.6642 7.05287 18.8571 6.86556 18.8514 6.63323C18.8318 5.84341 17.4098 4.89735 16.1655 4.56587V3H14.5121Z" fill="#FF6370"/>
<path fill-rule="evenodd" clip-rule="evenodd" d="M17.0415 8.78618C17.0418 8.97443 16.9674 9.15505 16.8346 9.28824C16.7018 9.42142 16.5214 9.4962 16.3331 9.4962C16.1451 9.4962 15.9646 9.42142 15.8319 9.28824C15.6991 9.15505 15.6246 8.97443 15.625 8.78618C15.6246 8.59812 15.699 8.4175 15.8319 8.28432C15.9647 8.15113 16.1451 8.07617 16.3331 8.07617C16.5214 8.07617 16.7018 8.15113 16.8346 8.28432C16.9674 8.41751 17.0418 8.59812 17.0415 8.78618Z" fill="#FF6370"/>
<path fill-rule="evenodd" clip-rule="evenodd" d="M19.0307 8.78618C19.0311 8.97443 18.9567 9.15505 18.8239 9.28824C18.6911 9.42142 18.5106 9.4962 18.3224 9.4962C18.1343 9.4962 17.9539 9.42142 17.8211 9.28824C17.6883 9.15505 17.6139 8.97443 17.6143 8.78618C17.6139 8.59812 17.6883 8.4175 17.8211 8.28432C17.9539 8.15113 18.1344 8.07617 18.3224 8.07617C18.5106 8.07617 18.6911 8.15113 18.8239 8.28432C18.9567 8.41751 19.0311 8.59812 19.0307 8.78618Z" fill="#FF6370"/>
<path fill-rule="evenodd" clip-rule="evenodd" d="M19.3784 11.1573C19.3788 11.3455 19.3044 11.5261 19.1715 11.6593C19.0387 11.7925 18.8583 11.8673 18.6701 11.8673C18.482 11.8673 18.3016 11.7925 18.1688 11.6593C18.0359 11.5261 17.9615 11.3455 17.9619 11.1573C17.9615 10.9692 18.0359 10.7886 18.1688 10.6554C18.3016 10.5222 18.482 10.4473 18.6701 10.4473C18.8583 10.4473 19.0387 10.5222 19.1715 10.6554C19.3043 10.7886 19.3788 10.9692 19.3784 11.1573Z" fill="#FF6370"/>
<path fill-rule="evenodd" clip-rule="evenodd" d="M19.7251 13.5293C19.7254 13.7176 19.651 13.8982 19.5182 14.0314C19.3854 14.1646 19.205 14.2394 19.0167 14.2394C18.8287 14.2394 18.6482 14.1646 18.5154 14.0314C18.3826 13.8982 18.3082 13.7176 18.3086 13.5293C18.3082 13.3413 18.3826 13.1607 18.5154 13.0275C18.6483 12.8943 18.8287 12.8193 19.0167 12.8193C19.205 12.8193 19.3854 12.8943 19.5182 13.0275C19.651 13.1607 19.7254 13.3413 19.7251 13.5293Z" fill="#FF6370"/>
<path fill-rule="evenodd" clip-rule="evenodd" d="M17.1567 11.3575C17.1571 11.5457 17.0827 11.7263 16.9499 11.8595C16.817 11.9927 16.6366 12.0675 16.4484 12.0675C16.2603 12.0675 16.0799 11.9927 15.9471 11.8595C15.8143 11.7263 15.7399 11.5457 15.7402 11.3575C15.7399 11.1694 15.8143 10.9888 15.9471 10.8556C16.0799 10.7224 16.2603 10.6475 16.4484 10.6475C16.6366 10.6475 16.8171 10.7224 16.9499 10.8556C17.0827 10.9888 17.1571 11.1694 17.1567 11.3575Z" fill="#FF6370"/>
<path fill-rule="evenodd" clip-rule="evenodd" d="M17.2729 13.9297C17.2733 14.118 17.1989 14.2986 17.0661 14.4318C16.9333 14.565 16.7528 14.6398 16.5646 14.6398C16.3765 14.6398 16.1961 14.565 16.0633 14.4318C15.9305 14.2986 15.8561 14.118 15.8564 13.9297C15.8561 13.7417 15.9305 13.5611 16.0633 13.4279C16.1961 13.2947 16.3765 13.2197 16.5646 13.2197C16.7528 13.2197 16.9333 13.2947 17.0661 13.4279C17.1989 13.5611 17.2733 13.7417 17.2729 13.9297Z" fill="#FF6370"/>
<path fill-rule="evenodd" clip-rule="evenodd" d="M13.6357 8.78618C13.6354 8.97443 13.7098 9.15505 13.8426 9.28824C13.9754 9.42142 14.1558 9.4962 14.3441 9.4962C14.5321 9.4962 14.7126 9.42142 14.8454 9.28824C14.9782 9.15505 15.0526 8.97443 15.0522 8.78618C15.0526 8.59812 14.9782 8.4175 14.8454 8.28432C14.7126 8.15113 14.5321 8.07617 14.3441 8.07617C14.1558 8.07617 13.9754 8.15113 13.8426 8.28432C13.7098 8.41751 13.6354 8.59812 13.6357 8.78618Z" fill="#FF6370"/>
<path fill-rule="evenodd" clip-rule="evenodd" d="M11.6455 8.78618C11.6451 8.97443 11.7195 9.15505 11.8524 9.28824C11.9852 9.42142 12.1656 9.4962 12.3538 9.4962C12.5419 9.4962 12.7223 9.42142 12.8551 9.28824C12.9879 9.15505 13.0624 8.97443 13.062 8.78618C13.0624 8.59812 12.9879 8.4175 12.8551 8.28432C12.7223 8.15113 12.5419 8.07617 12.3538 8.07617C12.1656 8.07617 11.9852 8.15113 11.8524 8.28432C11.7195 8.41751 11.6451 8.59812 11.6455 8.78618Z" fill="#FF6370"/>
<path fill-rule="evenodd" clip-rule="evenodd" d="M11.2988 11.1573C11.2985 11.3455 11.3729 11.5261 11.5057 11.6593C11.6385 11.7925 11.8189 11.8673 12.0072 11.8673C12.1952 11.8673 12.3757 11.7925 12.5085 11.6593C12.6413 11.5261 12.7157 11.3455 12.7153 11.1573C12.7157 10.9692 12.6413 10.7886 12.5085 10.6554C12.3756 10.5222 12.1952 10.4473 12.0072 10.4473C11.8189 10.4473 11.6385 10.5222 11.5057 10.6554C11.3729 10.7886 11.2985 10.9692 11.2988 11.1573Z" fill="#FF6370"/>
<path fill-rule="evenodd" clip-rule="evenodd" d="M10.9521 13.5293C10.9518 13.7176 11.0262 13.8982 11.159 14.0314C11.2918 14.1646 11.4722 14.2394 11.6605 14.2394C11.8485 14.2394 12.029 14.1646 12.1618 14.0314C12.2946 13.8982 12.369 13.7176 12.3686 13.5293C12.369 13.3413 12.2946 13.1607 12.1618 13.0275C12.029 12.8943 11.8485 12.8193 11.6605 12.8193C11.4722 12.8193 11.2918 12.8943 11.159 13.0275C11.0262 13.1607 10.9518 13.3413 10.9521 13.5293Z" fill="#FF6370"/>
<path fill-rule="evenodd" clip-rule="evenodd" d="M13.5195 11.3575C13.5192 11.5457 13.5936 11.7263 13.7264 11.8595C13.8592 11.9927 14.0396 12.0675 14.2279 12.0675C14.4159 12.0675 14.5964 11.9927 14.7292 11.8595C14.862 11.7263 14.9364 11.5457 14.936 11.3575C14.9364 11.1694 14.862 10.9888 14.7292 10.8556C14.5963 10.7224 14.4159 10.6475 14.2279 10.6475C14.0396 10.6475 13.8592 10.7224 13.7264 10.8556C13.5936 10.9888 13.5192 11.1694 13.5195 11.3575Z" fill="#FF6370"/>
<path fill-rule="evenodd" clip-rule="evenodd" d="M13.4043 13.9297C13.4039 14.118 13.4783 14.2986 13.6111 14.4318C13.744 14.565 13.9244 14.6398 14.1126 14.6398C14.3007 14.6398 14.4811 14.565 14.6139 14.4318C14.7467 14.2986 14.8211 14.118 14.8208 13.9297C14.8211 13.7417 14.7467 13.5611 14.6139 13.4279C14.4811 13.2947 14.3007 13.2197 14.1126 13.2197C13.9244 13.2197 13.7439 13.2947 13.6111 13.4279C13.4783 13.5611 13.4039 13.7417 13.4043 13.9297Z" fill="#FF6370"/>
<path fill-rule="evenodd" clip-rule="evenodd" d="M11.5426 15.3984C11.3996 15.3981 11.2582 15.4701 11.1741 15.5858L8.08705 19.8389C8.03106 19.9159 8 20.011 8 20.1062V23.8896C8 24.0086 8.04911 24.1269 8.13319 24.211C8.21745 24.2953 8.33557 24.3442 8.45462 24.3442H22.2224C22.3414 24.3442 22.4597 24.2951 22.5438 24.211C22.6281 24.1267 22.677 24.0086 22.677 23.8896V20.1062C22.677 20.011 22.6459 19.9159 22.5899 19.8389L19.5029 15.5858C19.4188 15.4701 19.2774 15.3981 19.1344 15.3984H11.5426ZM11.6466 15.8638H19.0305C19.1187 15.8642 19.205 15.9096 19.2552 15.982L20.6522 17.9749C20.7098 18.0572 20.7173 18.1719 20.6708 18.2608C20.6244 18.3499 20.526 18.4095 20.4256 18.4091H10.2512C10.1508 18.4095 10.0525 18.3498 10.006 18.2608C9.95955 18.1717 9.96699 18.0572 10.0247 17.9749L11.4216 15.982C11.4718 15.9096 11.5582 15.8642 11.6463 15.8638H11.6466ZM10.4042 20.3222C11.0062 20.3222 11.4939 20.8101 11.4939 21.4119C11.4939 22.0139 11.006 22.5016 10.4042 22.5016C9.80226 22.5016 9.31454 22.0137 9.31454 21.4119C9.31454 20.8099 9.80245 20.3222 10.4042 20.3222ZM20.2729 20.3222C20.8748 20.3222 21.3626 20.8101 21.3626 21.4119C21.3626 22.0139 20.8746 22.5016 20.2729 22.5016C19.6709 22.5016 19.1823 22.0137 19.1823 21.4119C19.1823 20.8099 19.671 20.3222 20.2729 20.3222Z" fill="#FF6370"/>
<path fill-rule="evenodd" clip-rule="evenodd" d="M9.53711 23.8213V26.3576C9.53711 26.7134 9.83176 26.9997 10.1978 26.9997H11.2378C11.6041 26.9997 11.8986 26.7134 11.8986 26.3576V23.8213H9.53711ZM18.9558 23.8213V26.3576C18.9558 26.7134 19.2504 26.9997 19.6165 26.9997H20.6556C21.0218 26.9997 21.3172 26.7134 21.3172 26.3576V23.8213H18.9558Z" fill="#FF6370"/>
<path fill-rule="evenodd" clip-rule="evenodd" d="M20.5324 17.0911L21.5214 18.4592L21.8172 18.4143C22.2233 18.3528 22.5482 17.9936 22.4467 17.6314C22.2346 16.8751 21.1857 17.091 20.5322 17.091L20.5324 17.0911Z" fill="#FF6370"/>
<path fill-rule="evenodd" clip-rule="evenodd" d="M10.145 17.0911L9.15593 18.4592L8.86017 18.4143C8.4541 18.3528 8.12911 17.9936 8.23068 17.6314C8.44274 16.8751 9.49165 17.091 10.1451 17.091L10.145 17.0911Z" fill="#FF6370"/>
</svg>
