<svg width="24" height="24" viewBox="0 0 24 24" fill="none" xmlns="http://www.w3.org/2000/svg">
<path d="M11.34 20.56V19.02C10.0333 18.8733 8.98667 18.4133 8.2 17.64C7.41333 16.8667 7.01333 15.8533 7 14.6H9.24C9.25333 15.2267 9.44 15.78 9.8 16.26C10.16 16.7267 10.6733 17.04 11.34 17.2V12.38C11.2333 12.3533 11.12 12.32 11 12.28C10.8933 12.24 10.78 12.2 10.66 12.16C9.58 11.8 8.76667 11.3333 8.22 10.76C7.68667 10.1867 7.42 9.43333 7.42 8.5C7.40667 7.40667 7.76 6.51333 8.48 5.82C9.2 5.12667 10.1533 4.72 11.34 4.6V3H12.7V4.62C13.86 4.75333 14.7933 5.17333 15.5 5.88C16.2067 6.58667 16.5667 7.47333 16.58 8.54H14.34C14.3267 8.1 14.18 7.68667 13.9 7.3C13.6333 6.9 13.2333 6.62667 12.7 6.48V10.76C12.8067 10.8 12.9133 10.84 13.02 10.88C13.1267 10.9067 13.2333 10.94 13.34 10.98C14.0333 11.2067 14.6533 11.48 15.2 11.8C15.7467 12.12 16.18 12.54 16.5 13.06C16.8333 13.58 17 14.24 17 15.04C17 15.7067 16.84 16.3333 16.52 16.92C16.2 17.4933 15.72 17.9733 15.08 18.36C14.44 18.7467 13.6467 18.9733 12.7 19.04V20.56H11.34ZM9.62 8.32C9.62 8.85333 9.77333 9.26667 10.08 9.56C10.3867 9.84 10.8067 10.0867 11.34 10.3V6.42C10.8333 6.51333 10.42 6.72667 10.1 7.06C9.78 7.38 9.62 7.8 9.62 8.32ZM14.76 15.18C14.76 14.5267 14.5667 14.0333 14.18 13.7C13.7933 13.3533 13.3 13.0667 12.7 12.84V17.24C13.3533 17.16 13.86 16.9333 14.22 16.56C14.58 16.1867 14.76 15.7267 14.76 15.18Z" fill="#A162F7"/>
</svg>
