<svg width="21" height="21" viewBox="0 0 21 21" fill="none" xmlns="http://www.w3.org/2000/svg">
<mask id="mask0_535_977" style="mask-type:luminance" maskUnits="userSpaceOnUse" x="0" y="0" width="21" height="21">
<path fill-rule="evenodd" clip-rule="evenodd" d="M20.2674 8.68182H10.7326V12.5455H16.2209C15.7093 15 13.5698 16.4091 10.7326 16.4091C7.38372 16.4091 4.68605 13.7727 4.68605 10.5C4.68605 7.22727 7.38372 4.59091 10.7326 4.59091C12.1744 4.59091 13.4767 5.09091 14.5 5.90909L17.4767 3C15.6628 1.45455 13.3372 0.5 10.7326 0.5C5.05814 0.5 0.5 4.95455 0.5 10.5C0.5 16.0455 5.05814 20.5 10.7326 20.5C15.8488 20.5 20.5 16.8636 20.5 10.5C20.5 9.90909 20.407 9.27273 20.2674 8.68182Z" fill="white"/>
</mask>
<g mask="url(#mask0_535_977)">
<path d="M-0.429688 16.409V4.59082L7.47729 10.4999L-0.429688 16.409Z" fill="#FBBC05"/>
</g>
<mask id="mask1_535_977" style="mask-type:luminance" maskUnits="userSpaceOnUse" x="0" y="0" width="21" height="21">
<path fill-rule="evenodd" clip-rule="evenodd" d="M20.2674 8.68182H10.7326V12.5455H16.2209C15.7093 15 13.5698 16.4091 10.7326 16.4091C7.38372 16.4091 4.68605 13.7727 4.68605 10.5C4.68605 7.22727 7.38372 4.59091 10.7326 4.59091C12.1744 4.59091 13.4767 5.09091 14.5 5.90909L17.4767 3C15.6628 1.45455 13.3372 0.5 10.7326 0.5C5.05814 0.5 0.5 4.95455 0.5 10.5C0.5 16.0455 5.05814 20.5 10.7326 20.5C15.8488 20.5 20.5 16.8636 20.5 10.5C20.5 9.90909 20.407 9.27273 20.2674 8.68182Z" fill="white"/>
</mask>
<g mask="url(#mask1_535_977)">
<path d="M-0.429688 4.59082L7.47729 10.4999L10.7331 7.72718L21.8959 5.95446V-0.40918H-0.429688V4.59082Z" fill="#EA4335"/>
</g>
<mask id="mask2_535_977" style="mask-type:luminance" maskUnits="userSpaceOnUse" x="0" y="0" width="21" height="21">
<path fill-rule="evenodd" clip-rule="evenodd" d="M20.2674 8.68182H10.7326V12.5455H16.2209C15.7093 15 13.5698 16.4091 10.7326 16.4091C7.38372 16.4091 4.68605 13.7727 4.68605 10.5C4.68605 7.22727 7.38372 4.59091 10.7326 4.59091C12.1744 4.59091 13.4767 5.09091 14.5 5.90909L17.4767 3C15.6628 1.45455 13.3372 0.5 10.7326 0.5C5.05814 0.5 0.5 4.95455 0.5 10.5C0.5 16.0455 5.05814 20.5 10.7326 20.5C15.8488 20.5 20.5 16.8636 20.5 10.5C20.5 9.90909 20.407 9.27273 20.2674 8.68182Z" fill="white"/>
</mask>
<g mask="url(#mask2_535_977)">
<path d="M-0.429688 16.409L13.5238 5.95446L17.1982 6.409L21.8959 -0.40918V21.409H-0.429688V16.409Z" fill="#34A853"/>
</g>
<mask id="mask3_535_977" style="mask-type:luminance" maskUnits="userSpaceOnUse" x="0" y="0" width="21" height="21">
<path fill-rule="evenodd" clip-rule="evenodd" d="M20.2674 8.68182H10.7326V12.5455H16.2209C15.7093 15 13.5698 16.4091 10.7326 16.4091C7.38372 16.4091 4.68605 13.7727 4.68605 10.5C4.68605 7.22727 7.38372 4.59091 10.7326 4.59091C12.1744 4.59091 13.4767 5.09091 14.5 5.90909L17.4767 3C15.6628 1.45455 13.3372 0.5 10.7326 0.5C5.05814 0.5 0.5 4.95455 0.5 10.5C0.5 16.0455 5.05814 20.5 10.7326 20.5C15.8488 20.5 20.5 16.8636 20.5 10.5C20.5 9.90909 20.407 9.27273 20.2674 8.68182Z" fill="white"/>
</mask>
<g mask="url(#mask3_535_977)">
<path d="M21.8943 21.409L7.4757 10.4999L5.61523 9.13627L21.8943 4.59082V21.409Z" fill="#4285F4"/>
</g>
</svg>
