<svg width="20" height="20" viewBox="0 0 20 20" fill="none" xmlns="http://www.w3.org/2000/svg">
<path d="M9.19032 1.66699C8.09597 1.66699 7.01234 1.88254 6.00129 2.30133C4.99024 2.72012 4.07158 3.33395 3.29776 4.10777C1.73496 5.67057 0.856985 7.79019 0.856985 10.0003C0.8497 11.9246 1.51598 13.7908 2.74032 15.2753L1.07365 16.942C0.95802 17.0592 0.87969 17.208 0.848545 17.3696C0.8174 17.5313 0.834835 17.6986 0.898651 17.8503C0.967866 18.0003 1.08007 18.1263 1.22102 18.2123C1.36198 18.2984 1.52532 18.3406 1.69032 18.3337H9.19032C11.4005 18.3337 13.5201 17.4557 15.0829 15.8929C16.6457 14.3301 17.5237 12.2105 17.5237 10.0003C17.5237 7.79019 16.6457 5.67057 15.0829 4.10777C13.5201 2.54497 11.4005 1.66699 9.19032 1.66699V1.66699ZM9.19032 16.667H3.69865L4.47365 15.892C4.62886 15.7359 4.71598 15.5246 4.71598 15.3045C4.71598 15.0843 4.62886 14.8731 4.47365 14.717C3.38247 13.627 2.70296 12.1924 2.55089 10.6577C2.39882 9.12287 2.7836 7.58283 3.63967 6.29993C4.49574 5.01702 5.77014 4.07062 7.24575 3.62197C8.72135 3.17332 10.3069 3.25016 11.7322 3.83942C13.1575 4.42868 14.3344 5.49389 15.0623 6.85357C15.7903 8.21325 16.0244 9.78328 15.7246 11.2962C15.4248 12.8091 14.6097 14.1712 13.4183 15.1505C12.2268 16.1299 10.7326 16.6658 9.19032 16.667V16.667Z" fill="#242731"/>
</svg>
